<?xml version="1.0" standalone="no"?>
<!DOCTYPE svg PUBLIC "-//W3C//DTD SVG 20010904//EN"
 "http://www.w3.org/TR/2001/REC-SVG-20010904/DTD/svg10.dtd">
<svg version="1.0" xmlns="http://www.w3.org/2000/svg"
 width="400.000000pt" height="475.000000pt" viewBox="0 0 400.000000 475.000000"
 preserveAspectRatio="xMidYMid meet">

<g transform="translate(0.000000,475.000000) scale(0.100000,-0.100000)"
fill="#000000" stroke="none">
<path d="M2390 4672 c-164 -23 -328 -154 -389 -311 -26 -63 -42 -163 -34 -203
6 -30 6 -30 57 -24 206 26 406 266 406 488 0 51 -3 56 -40 50z"/>
<path d="M2263 4095 c-29 -8 -94 -31 -145 -51 -121 -47 -154 -47 -293 7 -180
69 -309 66 -464 -12 -147 -73 -265 -227 -313 -408 -26 -100 -28 -298 -4 -424
53 -274 193 -553 366 -728 96 -96 132 -114 230 -113 64 0 89 6 170 39 90 37
101 39 200 39 98 0 111 -3 200 -38 52 -21 117 -40 145 -43 67 -7 146 17 207
62 92 67 229 264 299 425 59 136 59 130 -8 165 -70 36 -158 123 -195 191 -84
155 -77 353 16 498 33 50 123 142 160 163 18 10 17 13 -18 56 -49 60 -155 130
-236 158 -84 28 -242 35 -317 14z"/>
<path d="M2404 1765 c-13 -20 -15 -33 -8 -53 19 -55 95 -61 124 -9 13 24 13
30 0 55 -13 22 -24 28 -57 30 -36 3 -44 -1 -59 -23z"/>
<path d="M0 1405 l0 -345 55 0 55 0 0 115 0 115 108 0 c126 0 167 15 224 77
80 90 70 249 -22 327 -51 43 -117 56 -277 56 l-143 0 0 -345z m310 229 c50
-20 70 -56 70 -123 0 -42 -5 -56 -29 -83 -29 -33 -30 -33 -135 -36 l-106 -4 0
131 0 131 80 0 c50 0 95 -6 120 -16z"/>
<path d="M792 1577 c-18 -5 -46 -25 -62 -44 l-30 -34 0 41 0 40 -50 0 -50 0 0
-260 0 -260 55 0 55 0 0 176 0 176 34 34 c31 31 39 34 95 34 l61 0 0 49 c0 63
-26 75 -108 48z"/>
<path d="M1106 1578 c-57 -16 -128 -90 -147 -153 -23 -80 -18 -180 13 -246 41
-89 109 -129 220 -129 67 0 120 19 161 58 26 24 57 72 57 87 0 13 -98 4 -111
-11 -36 -43 -124 -57 -180 -28 -18 9 -38 32 -50 57 -36 80 -43 77 167 77 l187
0 -7 63 c-8 65 -35 138 -64 170 -47 52 -164 78 -246 55z m129 -92 c36 -15 60
-45 70 -88 l7 -28 -131 0 c-72 0 -131 3 -131 7 0 4 9 26 20 49 15 30 31 47 58
58 47 19 64 19 107 2z"/>
<path d="M1715 1576 c-17 -7 -43 -28 -58 -45 l-27 -33 0 41 0 41 -50 0 -50 0
0 -260 0 -260 50 0 50 0 0 158 c0 185 9 225 53 252 47 29 93 26 128 -9 l29
-29 0 -186 0 -186 49 0 50 0 3 186 3 186 33 29 c45 41 102 41 143 0 l29 -29 0
-186 0 -186 56 0 56 0 -4 203 c-3 159 -8 210 -20 239 -43 98 -193 115 -279 32
l-35 -34 -23 31 c-40 54 -121 74 -186 45z"/>
<path d="M3443 1579 c-17 -5 -46 -26 -62 -46 l-31 -38 0 43 0 42 -50 0 -50 0
0 -260 0 -260 55 0 55 0 0 175 c0 133 4 183 14 204 32 61 130 68 173 12 9 -11
12 -72 13 -203 l0 -188 55 0 55 0 0 186 0 186 29 29 c24 23 38 29 74 29 29 0
53 -7 68 -19 24 -19 24 -23 27 -215 l3 -196 55 0 54 0 0 188 c0 103 -5 204
-10 224 -21 73 -84 118 -166 118 -41 -1 -107 -33 -132 -65 l-22 -27 -27 32
c-45 54 -105 71 -180 49z"/>
<path d="M2410 1320 l0 -260 50 0 50 0 0 260 0 260 -50 0 -50 0 0 -260z"/>
<path d="M2662 1373 c2 -174 6 -213 20 -240 28 -49 73 -76 139 -81 71 -5 121
11 154 49 l25 31 0 -36 0 -36 55 0 55 0 -2 258 -3 257 -52 3 -52 3 -3 -186 -3
-187 -33 -29 c-26 -24 -41 -29 -81 -29 -105 0 -111 14 -111 250 l0 180 -56 0
-55 0 3 -207z"/>
<path d="M2430 370 l0 -360 50 0 50 0 0 360 0 360 -50 0 -50 0 0 -360z"/>
<path d="M2700 370 l0 -360 55 0 55 0 0 360 0 360 -55 0 -55 0 0 -360z"/>
<path d="M180 356 l0 -346 55 0 55 0 0 130 0 130 73 0 72 0 70 -130 69 -130
64 0 64 0 -43 78 c-23 42 -58 105 -77 140 -18 34 -29 62 -23 62 20 0 84 65
102 105 34 74 19 177 -34 233 -53 57 -89 66 -274 70 l-173 4 0 -346z m325 228
c65 -31 83 -128 34 -180 -30 -32 -78 -44 -171 -44 l-78 0 0 120 0 120 91 0
c62 0 102 -5 124 -16z"/>
<path d="M925 525 c-22 -9 -57 -32 -77 -52 -53 -51 -73 -110 -73 -208 1 -169
88 -265 240 -265 98 0 190 52 214 122 l10 28 -55 0 c-30 0 -54 -5 -54 -10 0
-20 -65 -50 -108 -50 -61 0 -100 24 -123 73 -36 80 -43 77 167 77 l186 0 -7
63 c-12 107 -50 174 -118 209 -53 27 -149 33 -202 13z m140 -89 c36 -15 59
-44 69 -88 l6 -28 -130 0 c-98 0 -130 3 -130 13 0 28 38 81 71 99 41 22 68 23
114 4z"/>
<path d="M1445 524 c-100 -37 -143 -140 -90 -221 21 -31 75 -57 165 -78 90
-21 120 -38 120 -68 0 -46 -36 -67 -113 -67 -48 0 -59 4 -84 30 -24 25 -35 30
-77 30 -48 0 -48 0 -42 -28 17 -71 85 -115 188 -120 122 -7 217 47 233 132 18
93 -29 143 -166 176 -116 28 -139 41 -139 80 0 23 7 33 30 45 54 28 148 11
163 -30 5 -11 21 -15 57 -15 27 0 50 2 50 5 0 22 -33 75 -59 98 -56 47 -156
60 -236 31z"/>
<path d="M2000 531 c-120 -37 -178 -138 -168 -295 10 -151 96 -236 241 -236
49 0 75 6 118 27 51 27 99 79 99 109 0 20 -96 19 -107 0 -22 -40 -121 -59
-173 -33 -33 17 -70 74 -70 108 l0 29 180 0 180 0 0 50 c0 65 -32 148 -73 188
-54 52 -153 75 -227 53z m157 -125 c19 -21 33 -46 33 -61 l0 -25 -125 0 c-140
0 -145 3 -105 68 44 71 141 80 197 18z"/>
<path d="M3089 527 c-61 -23 -97 -55 -125 -113 -57 -117 -40 -271 39 -350 106
-105 313 -80 377 47 l20 39 -54 0 c-39 0 -55 -4 -60 -15 -8 -22 -67 -45 -113
-45 -70 0 -133 62 -133 130 0 19 6 20 180 20 l180 0 0 53 c0 100 -46 184 -124
224 -41 21 -142 27 -187 10z m137 -93 c36 -17 64 -58 64 -94 0 -19 -6 -20
-125 -20 -140 0 -145 3 -105 68 35 57 104 76 166 46z"/>
<path d="M3693 521 c-23 -11 -48 -32 -57 -48 l-15 -28 -1 43 0 42 -50 0 -50 0
0 -260 0 -260 55 0 55 0 0 178 c0 153 3 180 18 198 26 32 55 44 112 44 l51 0
-3 53 c-3 52 -3 52 -38 55 -19 1 -54 -7 -77 -17z"/>
</g>
</svg>
