<svg width="28" height="28" viewBox="0 0 28 28" fill="none" xmlns="http://www.w3.org/2000/svg">
<path d="M19.0713 10.2354L22.3408 8.39844C22.1914 8.25781 22.0244 8.14355 21.8135 8.0293L15.6523 4.56641C15.1074 4.25 14.5449 4.0918 14 4.0918C13.4463 4.0918 12.8926 4.25 12.3389 4.56641L10.6514 5.51562L19.0713 10.2354ZM14 13.0742L17.7354 10.9824L9.35059 6.24512L6.17773 8.0293C5.97559 8.14355 5.7998 8.25781 5.65918 8.39844L14 13.0742ZM14.6416 23.3047C14.7207 23.2871 14.8086 23.2432 14.8877 23.1992L21.6992 19.376C22.543 18.8926 22.9824 18.3916 22.9824 17.1348V10.1211C22.9824 9.89258 22.9648 9.70801 22.9297 9.53223L14.6416 14.2168V23.3047ZM13.3584 23.3047V14.2168L5.07031 9.53223C5.02637 9.70801 5.00879 9.89258 5.00879 10.1211V17.1348C5.00879 18.3916 5.44824 18.8926 6.30078 19.376L13.1035 23.1992C13.1914 23.2432 13.2705 23.2871 13.3584 23.3047Z" fill="#1C1C1E"/>
</svg>
