<svg width="28" height="28" viewBox="0 0 28 28" fill="none" xmlns="http://www.w3.org/2000/svg">
<path d="M5.42188 12.3184C5.42188 13.2939 5.98438 13.7334 6.95996 13.7334H13.1738V8.79395H11.8467C10.502 8.79395 9.71973 7.97656 9.71973 7.01855C9.71973 6.07812 10.3789 5.50684 11.3281 5.50684C12.3477 5.50684 13.1738 6.31543 13.1738 7.55469V8.79395H14.8262V13.7334H21.04C22.0244 13.7334 22.5781 13.2939 22.5781 12.3184V10.3584C22.5781 9.27734 21.9805 8.79395 20.8906 8.79395H19.1416C19.6514 8.30176 19.959 7.63379 19.959 6.85156C19.959 5.11133 18.5615 3.85449 16.8213 3.85449C15.5205 3.85449 14.4307 4.58398 14 5.86719C13.5693 4.58398 12.4707 3.85449 11.1787 3.85449C9.43848 3.85449 8.04102 5.11133 8.04102 6.85156C8.04102 7.63379 8.34863 8.30176 8.8584 8.79395H7.10059C6.06348 8.79395 5.42188 9.27734 5.42188 10.3584V12.3184ZM16.6719 5.50684C17.6211 5.50684 18.2803 6.07812 18.2803 7.01855C18.2803 7.97656 17.498 8.79395 16.1533 8.79395H14.8262V7.55469C14.8262 6.31543 15.6523 5.50684 16.6719 5.50684ZM6.63477 20.2197C6.63477 21.7139 7.52246 22.5225 9.02539 22.5225H13.1738V14.7969H6.63477V20.2197ZM14.8262 22.5225H18.9746C20.4775 22.5225 21.3652 21.7139 21.3652 20.2197V14.7969H14.8262V22.5225Z" fill="#1C1C1E"/>
</svg>
